<svg
    width="5in"
    height="7in"
    viewBox="0 0 100 140"
    xmlns="http://www.w3.org/2000/svg"
    xmlns:xlink="http://www.w3.org/1999/xlink"
>
    <!-- <defs>
        <style type="text/css">
            <![CDATA[
             .fil0 {fill:black}
            ]]>
        </style>
    </defs> -->

    <!-- Black rounded frame -->
    <path
        fill="black"
        d="M 5.58 0
		l 88.56 0
		c 3.03,0 5.57,2.54 5.57,5.58
		l 0 128.13c0,3.03 -2.54,5.57 -5.57,5.57l-88.56 0
		c -3.03,0 -5.58,-2.54 -5.58,-5.57l0 -128.13
		c 0,-3.03 2.54,-5.57 5.58,-5.57
		zm 4.18 12.64l84.42 0 0 8.44 -84.42 0 0 -8.44
		z"
    />
    <!-- Colored inner rectangular frame / To be changed according to tokenId -->
    <path
        fill="#DB4F54"
        d="M 5.47 6.10
		l 88.64 0 0 127.13 -88.64 0 0 -127.13
		zm 3.53 5.47
		l 81.60 0 0 85.08 -81.60 0 0 -85.08
		z"
    />
</svg>
